<svg xmlns="http://www.w3.org/2000/svg" version="1.1" xmlns:xlink="http://www.w3.org/1999/xlink" xmlns:svgjs="http://svgjs.dev/svgjs" width="1000" height="623" viewBox="0 0 1000 623"><g transform="matrix(1,0,0,1,-0.6060606060606233,0.2522267206477409)"><svg viewBox="0 0 396 247" data-background-color="#471aa0" preserveAspectRatio="xMidYMid meet" height="623" width="1000" xmlns="http://www.w3.org/2000/svg" xmlns:xlink="http://www.w3.org/1999/xlink"><g id="tight-bounds" transform="matrix(1,0,0,1,0.2400000000000091,-0.09999999999999432)"><svg viewBox="0 0 395.52 247.2" height="247.2" width="395.52"><g><svg></svg></g><g><svg viewBox="0 0 395.52 247.2" height="247.2" width="395.52"><g mask="url(&quot;#26da1876-439e-4620-879e-17a3ae442e53&quot;)"><g><path xmlns="http://www.w3.org/2000/svg" d="M326.304 30.827v0c20.552 12.215 30.827 26.95 30.827 44.205v0c0 13.572-7.561 28.113-22.684 43.624v0c-8.725 9.112-19.039 16.965-30.944 23.557-11.943 6.592-23.731 11.342-35.364 14.25v0c-20.164 4.847-38.389 7.271-54.675 7.271v0c-3.49 0-6.98-0.097-10.469-0.291v0c-14.153 20.745-28.695 38.389-43.624 52.93v0c-21.909 20.552-46.047 30.827-72.415 30.827v0c-25.205 0-40.715-6.883-46.532-20.648v0c-1.357-3.296-2.036-7.135-2.035-11.517 0-4.343 2.23-9.035 6.689-14.076v0c6.98-7.949 16.771-11.924 29.373-11.924v0c8.143 0 16.674 1.454 25.592 4.363v0c3.296 1.163 4.459 2.424 3.49 3.78v0c-0.776 0.776-3.296 0.388-7.561-1.163-4.265-1.551-9.539-2.327-15.821-2.327-6.321 0-11.846 2.365-16.577 7.097-4.77 4.77-7.154 9.869-7.154 15.297v0c0 2.133 0.388 4.265 1.163 6.398v0c3.102 10.47 11.924 15.704 26.465 15.704v0c21.715 0 43.042-10.082 63.981-30.245v0c14.929-14.541 31.7-40.715 50.313-78.523v0c7.174-14.153 16.092-29.916 26.755-47.287 10.664-17.333 21.521-32.204 32.573-44.613v0c1.357-1.357 3.102-3.102 5.234-5.235v0c4.072-4.653 7.464-8.337 10.179-11.051v0c-13.96-1.939-28.888-2.908-44.787-2.908-15.898 0-30.924 1.299-45.077 3.897-14.153 2.637-26.465 5.739-36.935 9.306-10.47 3.606-21.075 8.259-31.816 13.96-10.78 5.739-19.854 12.971-27.221 21.695v0c-9.694 11.051-14.541 22.587-14.541 34.608v0c0 7.368 2.617 14.25 7.852 20.649v0c5.623 6.786 12.854 10.179 21.696 10.179 8.802 0 17.333-3.393 25.592-10.179 8.221-6.786 14.076-15.123 17.566-25.011v0c0.194-1.357 0.62-2.288 1.279-2.792 0.698-0.465 1.338-0.407 1.92 0.174 0.582 0.582 0.872 1.551 0.872 2.909v0c-0.194 12.602-5.08 22.529-14.657 29.78-9.617 7.29-20.241 10.935-31.874 10.935v0c-13.184 0-23.944-3.878-32.282-11.633-8.337-7.755-12.505-17.74-12.505-29.955v0c0-11.245 3.005-21.385 9.015-30.42 6.01-8.996 13.184-16.306 21.521-21.928 8.337-5.623 17.934-10.664 28.792-15.123v0c18.419-7.368 37.768-12.564 58.048-15.588 20.241-2.986 39.125-4.479 56.653-4.479 17.566 0 33.813 1.551 48.742 4.654v0c6.98-5.429 13.087-9.112 18.321-11.052 5.235-1.939 8.201-2.908 8.9-2.908 0.659 0 1.086 0.097 1.279 0.291v0c1.163 0 1.415 0.62 0.756 1.861-0.698 1.28-2.928 3.18-6.689 5.7-3.8 2.52-7.445 5.526-10.935 9.016v0c12.408 3.296 23.654 7.949 33.736 13.959zM211.138 157.336v0c14.153 0 29.528-2.482 46.124-7.446 16.558-4.925 31.234-12.137 44.031-21.637v0c24.817-18.807 37.225-38.195 37.226-58.165v0c0-22.684-17.159-38.098-51.476-46.24v0c-10.857 15.123-24.914 38.098-42.17 68.925-17.256 30.827-29.858 52.348-37.807 64.563v0c1.357 0 2.714 0 4.072 0z" fill="#a437db" fill-rule="nonzero" stroke="none" stroke-width="1" stroke-linecap="butt" stroke-linejoin="miter" stroke-miterlimit="10" stroke-dasharray="" stroke-dashoffset="0" font-family="none" font-weight="none" font-size="none" text-anchor="none" style="mix-blend-mode: normal" data-fill-palette-color="tertiary"></path></g></g><g transform="matrix(1,0,0,1,12.473785960874551,37.08)"><svg viewBox="0 0 370.5724280782509 173.04" height="173.04" width="370.5724280782509"><g><svg viewBox="0 0 370.5724280782509 173.04" height="173.04" width="370.5724280782509"><g><svg viewBox="0 0 370.5724280782509 173.04" height="173.04" width="370.5724280782509"><g><svg viewBox="0 0 370.5724280782509 173.04" height="173.04" width="370.5724280782509"><g id="textblocktransform"><svg viewBox="0 0 370.5724280782509 173.04" height="173.04" width="370.5724280782509" id="textblock"><g><svg viewBox="0 0 370.5724280782509 173.04" height="173.04" width="370.5724280782509"><g transform="matrix(1,0,0,1,0,0)"><svg width="370.5724280782509" viewBox="-10.25 -25.950000762939453 94.04000091552734 44.45000076293945" height="173.04" data-palette-color="#a437db"><path d="M17.85-13.6L17.85-13.6Q17.85-11.4 16.7-8.75 15.55-6.1 13.53-3.65 11.5-1.2 8.6-0.3L8.6-0.3Q7.5 0 6.08 0 4.65 0 2.95-0.9L2.95-0.9-1.8 10.95Q-2.55 12.55-3.2 13.05-3.85 13.55-4.45 13.55-5.05 13.55-5.18 13.55-5.3 13.55-6.08 13.4-6.85 13.25-7.25 13.3L-7.25 13.3Q-6.15 12.25-1.68 3.33 2.8-5.6 3.4-8.7L3.4-8.7Q2.85-7.9 2.35-7.85L2.35-7.85Q2.05-7.85 2.35-8.43 2.65-9 3.35-10.65L3.35-10.65Q4.25-12.8 4.25-14.63 4.25-16.45 3.55-16.75L3.55-16.75Q6.55-17.25 7.05-17.23 7.55-17.2 7.68-16.8 7.8-16.4 7.8-15.9L7.8-15.9Q7.8-12.85 6.4-9.1L6.4-9.1 7.4-10.7Q9.2-13.6 10.03-14.45 10.85-15.3 11.8-16.2L11.8-16.2Q13.25-17.6 14.6-17.6L14.6-17.6Q15-17.6 15.35-17.5L15.35-17.5Q17.85-16.85 17.85-13.6ZM15.45-14.1L15.45-14.1Q15.45-14.9 15.13-15.58 14.8-16.25 14.1-16.25L14.1-16.25Q12.35-16.25 10.03-13 7.7-9.75 3.35-1.65L3.35-1.65Q4-1 5.15-1 6.3-1 8.4-2.75L8.4-2.75Q11.75-5.55 14-9.7L14-9.7Q15.45-12.4 15.45-14.1ZM26.5-19.45Q25.8-18.85 24.95-18.85 24.1-18.85 23.6-19.45 23.1-20.05 23.2-20.9L23.2-20.9Q23.35-21.75 24.05-22.35 24.75-22.95 25.6-22.95 26.45-22.95 26.97-22.35 27.5-21.75 27.35-20.9 27.2-20.05 26.5-19.45ZM21.6-1.1L21.6-1.1Q22.55-1.1 23.6-2.05L23.6-2.05Q25.45-3.9 28.3-9.6L28.3-9.6Q28.65-10.35 29-10.05L29-10.05Q29.1-9.95 29.1-9.73 29.1-9.5 28.7-8.63 28.3-7.75 27.97-7.05 27.65-6.35 26.72-4.78 25.8-3.2 25.05-2.35L25.05-2.35Q23 0 21.17 0 19.35 0 18.55-1.1 17.75-2.2 17.75-3.55 17.75-4.9 18.4-6.5L18.4-6.5 21.6-14.65Q21.7-14.95 21.7-15.45 21.7-15.95 21.1-16.75L21.1-16.75 23.85-16.8Q25-16.8 25.2-16.38 25.4-15.95 24.9-15.05L24.9-15.05 20.9-5.7Q20.05-3.85 20.05-2.55L20.05-2.55Q20.05-1.1 21.6-1.1ZM20.2 15.5L20.2 15.5Q18.05 15.5 16.92 14.2 15.79 12.9 15.79 11.55 15.79 10.2 16.62 8.95 17.45 7.7 18.67 6.78 19.89 5.85 21.05 5.23 22.2 4.6 24.27 3.83 26.35 3.05 27.5 2.68 28.65 2.3 31.1 1.55 33.55 0.8 34.34 0.55L34.34 0.55Q35.25-2.35 35.25-3.85L35.25-3.85Q35.25-6.45 33.8-6.45L33.8-6.45Q33.59-6.45 33.4-6.4L33.4-6.4Q31-5.15 30.55-5.5L30.55-5.5Q30.3-5.7 30.35-6 30.4-6.3 30.8-6.4L30.8-6.4Q34.2-7.45 36.4-10.8L36.4-10.8Q37.05-11.8 37.05-12.65 37.05-13.5 36.34-14.3 35.65-15.1 34.84-15.1L34.84-15.1Q32.34-15.1 30.7-12.25L30.7-12.25Q29.3-9.9 28.05-7.25L28.05-7.25Q27.75-6.55 27.39-6.78 27.05-7 27.45-7.8L27.45-7.8Q30.1-13 30.4-13.5L30.4-13.5Q32.65-17.6 36.55-17.6L36.55-17.6Q38.3-17.6 39.2-16.3L39.2-16.3Q39.7-15.6 39.7-14.23 39.7-12.85 38.37-10.88 37.05-8.9 34.8-7.55L34.8-7.55Q34.84-7.55 34.9-7.55L34.9-7.55Q38.15-7.55 38.25-4.3L38.25-4.3Q38.25-2.4 37.7-0.65L37.7-0.65Q41.5-1.4 45.4-9.6L45.4-9.6Q45.59-10.05 45.9-10.1L45.9-10.1Q46.25-10.25 46.25-9.8L46.25-9.8Q46.25-9.25 44.95-6.9 43.65-4.55 42.5-3L42.5-3Q40.4 0 37.4 0.6L37.4 0.6Q35.45 5.95 31.62 9.78 27.8 13.6 22.5 15.15L22.5 15.15Q21.25 15.5 20.2 15.5ZM17.84 10.55L17.84 10.55Q17.55 11.5 17.55 12.5 17.55 13.5 18.3 13.95 19.05 14.4 19.7 14.4L19.7 14.4Q22.09 14.4 24.97 12.58 27.85 10.75 30.25 7.95 32.65 5.15 33.9 1.8L33.9 1.8Q32.84 2.15 30.6 2.8 28.35 3.45 27.05 3.85L27.05 3.85Q23.55 4.95 21.5 6.15L21.5 6.15Q18.8 7.7 17.84 10.55ZM37.24 15.5L37.24 15.5Q35.09 15.5 33.97 14.2 32.84 12.9 32.84 11.55 32.84 10.2 33.67 8.95 34.49 7.7 35.72 6.78 36.94 5.85 38.09 5.23 39.24 4.6 41.32 3.83 43.39 3.05 44.54 2.68 45.69 2.3 48.14 1.55 50.59 0.8 51.39 0.55L51.39 0.55Q52.29-2.35 52.29-3.85L52.29-3.85Q52.29-6.45 50.84-6.45L50.84-6.45Q50.64-6.45 50.44-6.4L50.44-6.4Q48.04-5.15 47.59-5.5L47.59-5.5Q47.34-5.7 47.39-6 47.44-6.3 47.84-6.4L47.84-6.4Q51.24-7.45 53.44-10.8L53.44-10.8Q54.09-11.8 54.09-12.65 54.09-13.5 53.39-14.3 52.69-15.1 51.89-15.1L51.89-15.1Q49.39-15.1 47.74-12.25L47.74-12.25Q46.34-9.9 45.09-7.25L45.09-7.25Q44.79-6.55 44.44-6.78 44.09-7 44.49-7.8L44.49-7.8Q47.14-13 47.44-13.5L47.44-13.5Q49.69-17.6 53.59-17.6L53.59-17.6Q55.34-17.6 56.24-16.3L56.24-16.3Q56.74-15.6 56.74-14.23 56.74-12.85 55.42-10.88 54.09-8.9 51.84-7.55L51.84-7.55Q51.89-7.55 51.94-7.55L51.94-7.55Q55.19-7.55 55.29-4.3L55.29-4.3Q55.29-2.4 54.74-0.65L54.74-0.65Q58.54-1.4 62.44-9.6L62.44-9.6Q62.64-10.05 62.94-10.1L62.94-10.1Q63.29-10.25 63.29-9.8L63.29-9.8Q63.29-9.25 61.99-6.9 60.69-4.55 59.54-3L59.54-3Q57.44 0 54.44 0.6L54.44 0.6Q52.49 5.95 48.67 9.78 44.84 13.6 39.54 15.15L39.54 15.15Q38.29 15.5 37.24 15.5ZM34.89 10.55L34.89 10.55Q34.59 11.5 34.59 12.5 34.59 13.5 35.34 13.95 36.09 14.4 36.74 14.4L36.74 14.4Q39.14 14.4 42.02 12.58 44.89 10.75 47.29 7.95 49.69 5.15 50.94 1.8L50.94 1.8Q49.89 2.15 47.64 2.8 45.39 3.45 44.09 3.85L44.09 3.85Q40.59 4.95 38.54 6.15L38.54 6.15Q35.84 7.7 34.89 10.55ZM77.64-13.55Q76.74-12.65 75.09-9.47 73.44-6.3 73.12-4.73 72.79-3.15 72.79-2.18 72.79-1.2 73.54-1.2L73.54-1.2Q74.49-1.2 75.89-2.95L75.89-2.95Q77.94-5.5 79.94-9.6L79.94-9.6Q80.14-10.05 80.39-10.1L80.39-10.1Q80.79-10.25 80.79-9.8L80.79-9.8Q80.79-9.55 80.64-9.2L80.64-9.2Q76.04 0.1 72.89 0.1L72.89 0.1Q71.44 0.1 70.54-1.3L70.54-1.3Q70.09-2.05 70.09-3.3 70.09-4.55 70.59-6.35L70.59-6.35Q66.59 0.1 63.69 0.1L63.69 0.1Q62.89 0.1 62.24-0.4L62.24-0.4Q60.74-1.45 60.74-4L60.74-4Q60.74-8.9 64.99-13.95L64.99-13.95Q67.39-16.75 70.89-17.6L70.89-17.6Q71.84-17.85 72.69-17.85L72.69-17.85Q74.99-17.85 76.59-16.25L76.59-16.25Q77.09-15.7 76.89-15.2 76.69-14.7 76.04-14.8L76.04-14.8Q75.49-16.6 73.64-16.6L73.64-16.6Q71.49-16.6 68.34-13.2L68.34-13.2Q66.54-11.2 64.99-8.5L64.99-8.5Q63.04-5.25 63.04-3.3 63.04-1.35 64.29-1.35L64.29-1.35Q67.29-1.35 72.14-10.55L72.14-10.55Q73.09-12.4 73.74-13.08 74.39-13.75 75.39-13.75L75.39-13.75Q75.59-13.75 76.42-13.6 77.24-13.45 77.64-13.55L77.64-13.55Z" opacity="1" transform="matrix(1,0,0,1,0,0)" fill="#a437db" class="undefined-text-0" data-fill-palette-color="primary" id="text-0"></path></svg></g></svg></g></svg></g></svg></g></svg></g></svg></g></svg></g></svg></g><defs><mask id="26da1876-439e-4620-879e-17a3ae442e53"><rect width="395.52" height="247.2" fill="white"></rect><g transform="matrix(1,0,0,1,12.473785960874551,37.08)" id="clone"><svg viewBox="0 0 370.5724280782509 173.04" height="173.04" width="370.5724280782509"><g><svg viewBox="0 0 370.5724280782509 173.04" height="173.04" width="370.5724280782509"><g><svg viewBox="0 0 370.5724280782509 173.04" height="173.04" width="370.5724280782509"><g><svg viewBox="0 0 370.5724280782509 173.04" height="173.04" width="370.5724280782509"><g id="SvgjsG1166"><svg viewBox="0 0 370.5724280782509 173.04" height="173.04" width="370.5724280782509" id="SvgjsSvg1165"><g><svg viewBox="0 0 370.5724280782509 173.04" height="173.04" width="370.5724280782509"><g transform="matrix(1,0,0,1,0,0)"><svg width="370.5724280782509" viewBox="-10.25 -25.950000762939453 94.04000091552734 44.45000076293945" height="173.04" data-palette-color="#a437db"><path d="M17.85-13.6L17.85-13.6Q17.85-11.4 16.7-8.75 15.55-6.1 13.53-3.65 11.5-1.2 8.6-0.3L8.6-0.3Q7.5 0 6.08 0 4.65 0 2.95-0.9L2.95-0.9-1.8 10.95Q-2.55 12.55-3.2 13.05-3.85 13.55-4.45 13.55-5.05 13.55-5.18 13.55-5.3 13.55-6.08 13.4-6.85 13.25-7.25 13.3L-7.25 13.3Q-6.15 12.25-1.68 3.33 2.8-5.6 3.4-8.7L3.4-8.7Q2.85-7.9 2.35-7.85L2.35-7.85Q2.05-7.85 2.35-8.43 2.65-9 3.35-10.65L3.35-10.65Q4.25-12.8 4.25-14.63 4.25-16.45 3.55-16.75L3.55-16.75Q6.55-17.25 7.05-17.23 7.55-17.2 7.68-16.8 7.8-16.4 7.8-15.9L7.8-15.9Q7.8-12.85 6.4-9.1L6.4-9.1 7.4-10.7Q9.2-13.6 10.03-14.45 10.85-15.3 11.8-16.2L11.8-16.2Q13.25-17.6 14.6-17.6L14.6-17.6Q15-17.6 15.35-17.5L15.35-17.5Q17.85-16.85 17.85-13.6ZM15.45-14.1L15.45-14.1Q15.45-14.9 15.13-15.58 14.8-16.25 14.1-16.25L14.1-16.25Q12.35-16.25 10.03-13 7.7-9.75 3.35-1.65L3.35-1.65Q4-1 5.15-1 6.3-1 8.4-2.75L8.4-2.75Q11.75-5.55 14-9.7L14-9.7Q15.45-12.4 15.45-14.1ZM26.5-19.45Q25.8-18.85 24.95-18.85 24.1-18.85 23.6-19.45 23.1-20.05 23.2-20.9L23.2-20.9Q23.35-21.75 24.05-22.35 24.75-22.95 25.6-22.95 26.45-22.95 26.97-22.35 27.5-21.75 27.35-20.9 27.2-20.05 26.5-19.45ZM21.6-1.1L21.6-1.1Q22.55-1.1 23.6-2.05L23.6-2.05Q25.45-3.9 28.3-9.6L28.3-9.6Q28.65-10.35 29-10.05L29-10.05Q29.1-9.95 29.1-9.73 29.1-9.5 28.7-8.63 28.3-7.75 27.97-7.05 27.65-6.35 26.72-4.78 25.8-3.2 25.05-2.35L25.05-2.35Q23 0 21.17 0 19.35 0 18.55-1.1 17.75-2.2 17.75-3.55 17.75-4.9 18.4-6.5L18.4-6.5 21.6-14.65Q21.7-14.95 21.7-15.45 21.7-15.95 21.1-16.75L21.1-16.75 23.85-16.8Q25-16.8 25.2-16.38 25.4-15.95 24.9-15.05L24.9-15.05 20.9-5.7Q20.05-3.85 20.05-2.55L20.05-2.55Q20.05-1.1 21.6-1.1ZM20.2 15.5L20.2 15.5Q18.05 15.5 16.92 14.2 15.79 12.9 15.79 11.55 15.79 10.2 16.62 8.95 17.45 7.7 18.67 6.78 19.89 5.85 21.05 5.23 22.2 4.6 24.27 3.83 26.35 3.05 27.5 2.68 28.65 2.3 31.1 1.55 33.55 0.8 34.34 0.55L34.34 0.55Q35.25-2.35 35.25-3.85L35.25-3.85Q35.25-6.45 33.8-6.45L33.8-6.45Q33.59-6.45 33.4-6.4L33.4-6.4Q31-5.15 30.55-5.5L30.55-5.5Q30.3-5.7 30.35-6 30.4-6.3 30.8-6.4L30.8-6.4Q34.2-7.45 36.4-10.8L36.4-10.8Q37.05-11.8 37.05-12.65 37.05-13.5 36.34-14.3 35.65-15.1 34.84-15.1L34.84-15.1Q32.34-15.1 30.7-12.25L30.7-12.25Q29.3-9.9 28.05-7.25L28.05-7.25Q27.75-6.55 27.39-6.78 27.05-7 27.45-7.8L27.45-7.8Q30.1-13 30.4-13.5L30.4-13.5Q32.65-17.6 36.55-17.6L36.55-17.6Q38.3-17.6 39.2-16.3L39.2-16.3Q39.7-15.6 39.7-14.23 39.7-12.85 38.37-10.88 37.05-8.9 34.8-7.55L34.8-7.55Q34.84-7.55 34.9-7.55L34.9-7.55Q38.15-7.55 38.25-4.3L38.25-4.3Q38.25-2.4 37.7-0.65L37.7-0.65Q41.5-1.4 45.4-9.6L45.4-9.6Q45.59-10.05 45.9-10.1L45.9-10.1Q46.25-10.25 46.25-9.8L46.25-9.8Q46.25-9.25 44.95-6.9 43.65-4.55 42.5-3L42.5-3Q40.4 0 37.4 0.6L37.4 0.6Q35.45 5.95 31.62 9.78 27.8 13.6 22.5 15.15L22.5 15.15Q21.25 15.5 20.2 15.5ZM17.84 10.55L17.84 10.55Q17.55 11.5 17.55 12.5 17.55 13.5 18.3 13.95 19.05 14.4 19.7 14.4L19.7 14.4Q22.09 14.4 24.97 12.58 27.85 10.75 30.25 7.95 32.65 5.15 33.9 1.8L33.9 1.8Q32.84 2.15 30.6 2.8 28.35 3.45 27.05 3.85L27.05 3.85Q23.55 4.95 21.5 6.15L21.5 6.15Q18.8 7.7 17.84 10.55ZM37.24 15.5L37.24 15.5Q35.09 15.5 33.97 14.2 32.84 12.9 32.84 11.55 32.84 10.2 33.67 8.95 34.49 7.7 35.72 6.78 36.94 5.85 38.09 5.23 39.24 4.6 41.32 3.83 43.39 3.05 44.54 2.68 45.69 2.3 48.14 1.55 50.59 0.8 51.39 0.55L51.39 0.55Q52.29-2.35 52.29-3.85L52.29-3.85Q52.29-6.45 50.84-6.45L50.84-6.45Q50.64-6.45 50.44-6.4L50.44-6.4Q48.04-5.15 47.59-5.5L47.59-5.5Q47.34-5.7 47.39-6 47.44-6.3 47.84-6.4L47.84-6.4Q51.24-7.45 53.44-10.8L53.44-10.8Q54.09-11.8 54.09-12.65 54.09-13.5 53.39-14.3 52.69-15.1 51.89-15.1L51.89-15.1Q49.39-15.1 47.74-12.25L47.74-12.25Q46.34-9.9 45.09-7.25L45.09-7.25Q44.79-6.55 44.44-6.78 44.09-7 44.49-7.8L44.49-7.8Q47.14-13 47.44-13.5L47.44-13.5Q49.69-17.6 53.59-17.6L53.59-17.6Q55.34-17.6 56.24-16.3L56.24-16.3Q56.74-15.6 56.74-14.23 56.74-12.85 55.42-10.88 54.09-8.9 51.84-7.55L51.84-7.55Q51.89-7.55 51.94-7.55L51.94-7.55Q55.19-7.55 55.29-4.3L55.29-4.3Q55.29-2.4 54.74-0.65L54.74-0.65Q58.54-1.4 62.44-9.6L62.44-9.6Q62.64-10.05 62.94-10.1L62.94-10.1Q63.29-10.25 63.29-9.8L63.29-9.8Q63.29-9.25 61.99-6.9 60.69-4.55 59.54-3L59.54-3Q57.44 0 54.44 0.6L54.44 0.6Q52.49 5.95 48.67 9.78 44.84 13.6 39.54 15.15L39.54 15.15Q38.29 15.5 37.24 15.5ZM34.89 10.55L34.89 10.55Q34.59 11.5 34.59 12.5 34.59 13.5 35.34 13.95 36.09 14.4 36.74 14.4L36.74 14.4Q39.14 14.4 42.02 12.58 44.89 10.75 47.29 7.95 49.69 5.15 50.94 1.8L50.94 1.8Q49.89 2.15 47.64 2.8 45.39 3.45 44.09 3.85L44.09 3.85Q40.59 4.95 38.54 6.15L38.54 6.15Q35.84 7.7 34.89 10.55ZM77.64-13.55Q76.74-12.65 75.09-9.47 73.44-6.3 73.12-4.73 72.79-3.15 72.79-2.18 72.79-1.2 73.54-1.2L73.54-1.2Q74.49-1.2 75.89-2.95L75.89-2.95Q77.94-5.5 79.94-9.6L79.94-9.6Q80.14-10.05 80.39-10.1L80.39-10.1Q80.79-10.25 80.79-9.8L80.79-9.8Q80.79-9.55 80.64-9.2L80.64-9.2Q76.04 0.1 72.89 0.1L72.89 0.1Q71.44 0.1 70.54-1.3L70.54-1.3Q70.09-2.05 70.09-3.3 70.09-4.55 70.59-6.35L70.59-6.35Q66.59 0.1 63.69 0.1L63.69 0.1Q62.89 0.1 62.24-0.4L62.24-0.4Q60.74-1.45 60.74-4L60.74-4Q60.74-8.9 64.99-13.95L64.99-13.95Q67.39-16.75 70.89-17.6L70.89-17.6Q71.84-17.85 72.69-17.85L72.69-17.85Q74.99-17.85 76.59-16.25L76.59-16.25Q77.09-15.7 76.89-15.2 76.69-14.7 76.04-14.8L76.04-14.8Q75.49-16.6 73.64-16.6L73.64-16.6Q71.49-16.6 68.34-13.2L68.34-13.2Q66.54-11.2 64.99-8.5L64.99-8.5Q63.04-5.25 63.04-3.3 63.04-1.35 64.29-1.35L64.29-1.35Q67.29-1.35 72.14-10.55L72.14-10.55Q73.09-12.4 73.74-13.08 74.39-13.75 75.39-13.75L75.39-13.75Q75.59-13.75 76.42-13.6 77.24-13.45 77.64-13.55L77.64-13.55Z" opacity="1" transform="matrix(1,0,0,1,0,0)" fill="#a437db" class="undefined-text-0" data-fill-palette-color="primary" id="SvgjsPath1164" stroke-width="5" stroke="black" stroke-linejoin="round"></path></svg></g></svg></g></svg></g></svg></g></svg></g></svg></g></svg></g></mask></defs></svg><rect width="395.52" height="247.2" fill="none" stroke="none" visibility="hidden"></rect></g></svg></g></svg>