<?xml version="1.0" standalone="no"?><!DOCTYPE svg PUBLIC "-//W3C//DTD SVG 1.1//EN" "http://www.w3.org/Graphics/SVG/1.1/DTD/svg11.dtd"><svg t="1684573165609" class="icon" viewBox="0 0 1024 1024" version="1.1" xmlns="http://www.w3.org/2000/svg" p-id="5696" xmlns:xlink="http://www.w3.org/1999/xlink" width="200" height="200"><path d="M143.872 582.144v87.552h692.224c19.456 0 34.304-89.088 34.304-89.088l-726.528 1.536z" fill="#F2C05A" p-id="5697"></path><path d="M836.608 696.32H143.872c-14.848 0-26.624-11.776-26.624-26.624v-87.552c0-14.336 11.776-26.624 26.624-26.624l727.04-1.536c7.68 0 15.36 3.584 19.968 9.216 5.12 6.144 7.168 13.824 5.632 21.504-18.432 111.616-47.616 111.616-59.904 111.616zM170.496 643.584h656.384c3.584-7.168 7.68-20.992 11.776-36.352l-667.648 1.536v34.816z" fill="#262626" p-id="5698"></path><path d="M684.032 148.992c-14.848-7.68-33.28-5.632-45.568 5.632l-494.08 427.52h92.16v246.272c0 29.184 23.552 52.736 52.736 52.736s52.736-23.552 52.736-52.736v-246.272h54.784v116.224c0 29.696 24.576 54.272 54.272 54.272s54.272-24.576 54.272-54.272v-99.84-16.384H583.68c7.68 29.184 33.792 50.688 65.024 50.688s57.856-21.504 65.024-50.688l157.696-0.512c49.664-283.136-120.32-398.848-187.392-432.64z" fill="#FFDE8A" p-id="5699"></path><path d="M521.216 335.36c30.208 0 54.272-24.064 54.272-54.272 0-20.992-11.776-38.4-28.672-47.616L470.528 299.52c7.68 20.992 27.136 35.84 50.688 35.84z" fill="#FF5C5C" p-id="5700"></path><path d="M521.216 346.112c-27.136 0-51.712-17.408-60.928-43.008-1.536-4.096-0.512-8.704 3.072-11.776L539.648 225.28c3.072-3.072 8.192-3.584 11.776-1.536 21.504 11.264 34.304 33.28 34.304 56.832 0.512 36.352-28.672 65.536-64.512 65.536z m-37.888-43.52c7.68 13.824 22.016 22.528 37.888 22.528 24.064 0 43.52-19.456 43.52-43.52 0-13.824-6.656-26.624-17.408-34.816L483.328 302.592z" fill="#262626" p-id="5701"></path><path d="M700.928 381.952c-6.144 26.112 10.752 52.736 36.864 58.368 18.432 4.096 36.352-2.56 47.616-15.872L742.4 344.064c-19.968 2.56-36.864 16.896-41.472 37.888z" fill="#FF5C5C" p-id="5702"></path><path d="M748.544 452.096c-4.096 0-8.704-0.512-12.8-1.536-31.744-7.168-52.224-38.912-45.056-71.168 5.632-24.064 25.6-42.496 50.688-45.568 4.096-0.512 8.704 1.536 10.752 5.632l43.008 79.872c2.048 4.096 1.536 8.704-1.536 11.776-11.776 13.312-28.16 20.992-45.056 20.992zM711.168 384c-2.048 10.24-0.512 20.48 5.12 28.672 5.632 8.704 13.824 14.848 24.064 16.896 11.264 2.56 23.04-0.512 32.256-7.68L737.28 355.84c-13.312 4.608-23.04 14.848-26.112 28.16z" fill="#262626" p-id="5703"></path><path d="M288.768 907.264c-43.52 0-79.36-35.328-79.36-79.36v-219.648H143.872c-11.264 0-20.992-6.656-24.576-17.408-4.096-10.24-1.024-22.016 7.68-29.184l494.08-427.52c20.992-17.92 50.176-21.504 74.752-9.216 60.928 30.72 254.976 155.136 201.216 459.776-2.048 12.8-13.312 22.016-26.112 22.016l-139.776 0.512c-15.872 30.72-47.616 50.688-82.944 50.688-35.328 0-67.072-19.968-82.944-50.688h-33.792v89.6c0 44.544-36.352 80.384-80.384 80.384s-80.384-36.352-80.384-80.384v-89.6H368.64v219.648c-0.512 44.544-35.84 80.384-79.872 80.384z m-52.736-351.744c7.168 0 13.824 2.56 18.432 7.68 5.12 5.12 7.68 11.776 7.68 18.944v246.272c0 14.336 11.776 26.624 26.624 26.624s26.624-11.776 26.624-26.624v-246.272c0-14.336 11.776-26.624 26.624-26.624h54.784c7.168 0 13.824 2.56 18.432 7.68 5.12 5.12 7.68 11.776 7.68 18.944v116.224c0 15.36 12.288 27.648 27.648 27.648s27.648-12.288 27.648-27.648v-99.84-7.168-9.728c0-14.336 11.776-26.624 26.624-26.624h78.336c12.288 0 22.528 8.192 25.6 19.968 4.608 17.92 20.992 30.72 39.424 30.72 18.432 0 34.816-12.8 39.424-30.72 3.072-11.776 13.312-19.968 25.6-19.968l135.168-0.512c34.304-245.76-111.104-348.672-176.64-381.952-5.632-2.56-11.776-2.048-16.384 2.048l-440.32 380.928h20.992z m634.88 25.088z" fill="#262626" p-id="5704"></path><path d="M870.912 580.608c51.2-288.256-126.976-402.432-190.976-433.664-12.8-6.144-28.16-4.096-38.912 5.12l-38.912 33.792c84.992 63.488 227.84 180.736 184.32 395.264l84.48-0.512z" fill="#FFB07B" p-id="5705"></path><path d="M786.432 607.232c-7.68 0-15.36-3.584-20.48-9.728s-7.168-14.336-5.632-22.016c36.864-182.272-67.584-288.768-174.592-368.64-6.656-4.608-10.24-12.288-10.752-20.48-0.512-8.192 3.072-15.872 9.216-20.992l38.912-33.792c18.944-16.384 45.568-19.968 67.584-8.704 61.952 30.208 260.096 153.088 205.312 462.336-2.048 12.8-13.312 22.016-26.112 22.016h-83.456z m84.48-26.624zM643.584 184.32c76.288 59.904 198.656 175.104 173.568 369.664h30.72c34.816-249.344-113.152-351.232-180.224-383.488-3.072-1.536-7.168-1.024-10.24 1.536l-13.824 12.288z" fill="#262626" p-id="5706"></path><path d="M786.432 580.608s-4.608 56.32-25.088 89.088h75.264s26.624-14.336 34.304-89.088h-84.48z" fill="#E2803D" p-id="5707"></path><path d="M836.608 696.32h-75.264c-9.728 0-18.432-5.12-23.04-13.824-4.608-8.192-4.608-18.432 0.512-26.624 13.824-22.528 19.968-63.488 20.992-77.312 1.024-13.824 12.8-24.064 26.112-24.064H870.4c7.68 0 14.848 3.072 19.456 8.704 5.12 5.632 7.68 12.8 6.656 20.48-8.704 82.432-39.424 104.96-48.128 109.568-3.072 2.048-7.68 3.072-11.776 3.072z m-35.328-52.736h24.576c3.584-5.12 9.728-16.384 14.336-36.352h-30.208c-2.048 10.24-4.608 23.04-8.704 36.352z" fill="#262626" p-id="5708"></path><path d="M415.232 473.6m-35.328 0a35.328 35.328 0 1 0 70.656 0 35.328 35.328 0 1 0-70.656 0Z" fill="#FF5C5C" p-id="5709"></path><path d="M415.232 519.68c-25.088 0-46.08-20.48-46.08-46.08s20.48-46.08 46.08-46.08 46.08 20.48 46.08 46.08-20.48 46.08-46.08 46.08z m0-70.656c-13.824 0-24.576 11.264-24.576 24.576s11.264 24.576 24.576 24.576 24.576-11.264 24.576-24.576-10.752-24.576-24.576-24.576z" fill="#262626" p-id="5710"></path><path d="M589.312 508.928h-74.24c-4.096 0-7.68-3.584-7.68-7.68v-16.896c0-4.096 3.584-7.68 7.68-7.68h74.24c4.096 0 7.68 3.584 7.68 7.68v16.896c0.512 4.096-3.072 7.68-7.68 7.68z" fill="#3DE25C" p-id="5711"></path><path d="M581.12 519.68h-57.344c-14.848 0-26.624-11.776-26.624-26.624s11.776-26.624 26.624-26.624h57.344c14.848 0 26.624 11.776 26.624 26.624s-11.776 26.624-26.624 26.624z m-57.344-32.256c-3.072 0-5.632 2.56-5.632 5.632s2.56 5.632 5.632 5.632h57.344c3.072 0 5.632-2.56 5.632-5.632s-2.56-5.632-5.632-5.632h-57.344z" fill="#262626" p-id="5712"></path><path d="M640.512 431.616l-39.424-43.008c-1.536-1.536-1.536-4.096 0-5.632l17.92-16.384c1.536-1.536 4.096-1.536 5.632 0l39.424 43.008c1.536 1.536 1.536 4.096 0 5.632l-17.92 16.384c-1.024 1.536-4.096 1.536-5.632 0z" fill="#3DE25C" p-id="5713"></path><path d="M644.096 441.856h-1.024c-5.12 0-9.728-2.56-13.312-6.144l-33.792-36.352c-3.584-3.584-5.12-8.704-5.12-13.824 0-5.12 2.56-9.728 6.144-13.312l11.264-10.24c3.584-3.584 8.704-5.12 13.824-5.12 5.12 0 9.728 2.56 13.312 6.144l33.792 36.352c3.584 3.584 5.12 8.704 5.12 13.824 0 5.12-2.56 9.728-6.144 13.312l-11.264 10.24c-3.584 3.072-8.192 5.12-12.8 5.12z m1.536-20.48z m-32.256-35.328l30.72 33.28 8.192-7.68-30.72-33.28-8.192 7.68z" fill="#262626" p-id="5714"></path></svg>